<?xml version="1.0"?>
<svg xmlns="http://www.w3.org/2000/svg" xmlns:xlink="http://www.w3.org/1999/xlink" version="1.1" id="Capa_1" x="0px" y="0px" viewBox="0 0 317.878 317.878" style="enable-background:new 0 0 317.878 317.878;" xml:space="preserve" width="512px" height="512px" class=""><g><path d="M315.607,70.237c-2.653-3.086-7.189-3.881-11.729-1.928l-38.042,16.369C240.674,43.314,195.163,15.63,143.309,15.63  C64.288,15.63,0,79.918,0,158.939s64.288,143.309,143.309,143.309c11.046,0,20-8.954,20-20s-8.954-20-20-20  C86.344,262.247,40,215.903,40,158.939S86.344,55.63,143.309,55.63c35.379,0,66.657,17.88,85.284,45.074l-36.271,15.607  c-3.885,1.672-6.314,4.629-6.666,8.113c-0.351,3.483,1.44,6.866,4.913,9.279l93.503,64.979c2.129,1.479,4.448,2.262,6.706,2.262  c0.001,0,0.001,0,0.001,0c5.028,0,8.98-3.77,9.832-9.379l17.103-112.572C318.239,75.538,317.491,72.429,315.607,70.237z" data-original="#000000" class="active-path" data-old_color="#070707" fill="#020202"/></g> </svg>
